<svg width="24" height="24" viewBox="0 0 24 24" fill="none" xmlns="http://www.w3.org/2000/svg">
<path d="M12 23.5C18.3513 23.5 23.5 18.3513 23.5 12C23.5 5.64873 18.3513 0.5 12 0.5C5.64873 0.5 0.5 5.64873 0.5 12C0.5 18.3513 5.64873 23.5 12 23.5Z" stroke="white" stroke-linecap="round" stroke-linejoin="round"/>
<path d="M13.414 13.414C13.0368 13.7783 12.5316 13.9799 12.0072 13.9754C11.4828 13.9708 10.9812 13.7605 10.6104 13.3896C10.2396 13.0188 10.0292 12.5172 10.0247 11.9928C10.0201 11.4684 10.2217 10.9632 10.586 10.586C11.367 9.80501 18.718 5.28601 18.718 5.28601C18.718 5.28601 14.2 12.633 13.414 13.414Z" stroke="white" stroke-linecap="round" stroke-linejoin="round"/>
<path d="M3.5 12H5" stroke="white" stroke-linecap="round" stroke-linejoin="round"/>
<path d="M5.98999 5.98999L7.04999 7.04999" stroke="white" stroke-linecap="round" stroke-linejoin="round"/>
<path d="M12 3.5V5" stroke="white" stroke-linecap="round" stroke-linejoin="round"/>
<path d="M20.5 12H19" stroke="white" stroke-linecap="round" stroke-linejoin="round"/>
<path d="M20.633 19.6C18.0985 17.851 15.0789 16.9416 12 17C8.92111 16.9416 5.90153 17.851 3.367 19.6" stroke="white" stroke-linecap="round" stroke-linejoin="round"/>
</svg>
