<svg width="26" height="26" viewBox="0 0 26 26" fill="none" xmlns="http://www.w3.org/2000/svg">
<mask id="path-1-outside-1" maskUnits="userSpaceOnUse" x="0" y="0" width="26" height="26" fill="black">
<rect fill="white" width="26" height="26"/>
<path d="M13 1.00004C10.6266 1.00004 8.30655 1.70383 6.33316 3.0224C4.35977 4.34098 2.8217 6.21512 1.91345 8.40783C1.0052 10.6005 0.767559 13.0133 1.23058 15.3411C1.69361 17.6689 2.8365 19.8071 4.51473 21.4853C6.76516 23.7357 9.81741 25 13 25C16.1826 25 19.2348 23.7357 21.4853 21.4853C23.7357 19.2349 25 16.1826 25 13C25 9.81743 23.7357 6.76518 21.4853 4.51475C20.3736 3.39695 19.0512 2.51076 17.5947 1.90746C16.1382 1.30416 14.5765 0.995737 13 1.00004ZM4.92034 4.92036C5.69438 4.14508 6.57549 3.48467 7.53681 2.95924L8.91088 3.99253C9.03202 4.08345 9.15825 4.16738 9.28895 4.24391C9.71432 4.49365 10.0805 4.83268 10.3621 5.23762L11.1568 6.38359C11.2737 6.55129 11.334 6.75195 11.3288 6.95631C11.3237 7.16067 11.2533 7.35804 11.1281 7.51962L10.7595 7.99771C10.6996 8.07508 10.6206 8.13551 10.5302 8.17305C10.4398 8.21059 10.3412 8.22394 10.2441 8.21179L9.82589 8.1583C9.47511 8.11316 9.11882 8.17261 8.80169 8.32917C8.48456 8.48573 8.22072 8.73244 8.04325 9.03836C7.98517 9.13436 7.90008 9.2111 7.79862 9.25898C7.69715 9.30687 7.58382 9.32377 7.4728 9.30757L6.51624 9.18609C6.17588 9.14172 5.82989 9.1931 5.51712 9.33448C5.20435 9.47585 4.93717 9.70161 4.7456 9.98641C4.56282 10.2562 4.46278 10.5734 4.45776 10.8992C4.45274 11.225 4.54296 11.5452 4.71734 11.8205L5.35511 12.8275C5.56926 13.163 5.90191 13.4055 6.28682 13.5068C6.67174 13.608 7.08066 13.5606 7.43216 13.3738L8.08871 13.0221C8.22915 12.9473 8.38649 12.9101 8.54553 12.914C8.70456 12.9178 8.85991 12.9627 8.99655 13.0441L10.2427 13.7918C10.3392 13.8499 10.4504 13.8791 10.563 13.8761C11.0246 13.8633 11.4785 14.106 11.7779 14.5234L12.3875 15.3732C12.4349 15.4392 12.4855 15.5039 12.538 15.5657L13.3356 16.504C13.3473 16.5175 13.3559 16.5335 13.3606 16.5508C13.3654 16.5681 13.3662 16.5862 13.3631 16.6038C13.3553 16.6384 13.335 16.6687 13.306 16.689L12.108 17.609C11.74 17.8905 11.4692 18.28 11.3335 18.7229L10.9308 20.0293C10.9101 20.0968 10.8762 20.1595 10.831 20.2137L10.439 20.685C10.1089 21.0755 9.90569 21.5572 9.85639 22.0661C9.85094 22.1269 9.829 22.185 9.79294 22.2342C9.75688 22.2834 9.70807 22.3219 9.65177 22.3454C9.64715 22.3474 9.64204 22.348 9.63707 22.3472C9.6321 22.3463 9.62748 22.3441 9.6238 22.3406C9.61854 22.3334 9.61525 22.3249 9.61424 22.3161L9.24702 20.1104C9.19327 19.7897 9.06226 19.487 8.86532 19.2283L7.51267 17.4546C7.41293 17.3241 7.33921 17.1757 7.29552 17.0174L6.84908 15.4067C6.75688 15.0775 6.5811 14.7776 6.3388 14.5364C6.0965 14.2951 5.79592 14.1206 5.46626 14.0298L5.36902 14.0032C5.2172 13.9617 5.07785 13.8837 4.96313 13.776L4.13025 12.9921C4.01843 12.8869 3.92233 12.7662 3.84493 12.6336C3.6277 12.2602 3.30276 11.9612 2.9127 11.7757C2.52263 11.5902 2.08562 11.5268 1.65892 11.5939C1.96605 9.06632 3.11484 6.71565 4.92034 4.92036ZM21.0797 21.0797C19.4817 22.6777 17.4457 23.766 15.2292 24.2069C13.0127 24.6478 10.7152 24.4215 8.62734 23.5567C6.53944 22.6918 4.75489 21.2273 3.49936 19.3482C2.24382 17.4691 1.5737 15.26 1.57373 13C1.57373 12.7278 1.58329 12.4572 1.60241 12.1882L1.69363 12.1702C2.01362 12.1081 2.345 12.1472 2.64174 12.2821C2.93849 12.417 3.18587 12.6409 3.34953 12.9228C3.45467 13.1029 3.58519 13.267 3.73707 13.4099L4.5698 14.1937C4.75297 14.3657 4.97546 14.4904 5.21785 14.5567L5.31509 14.5833C5.54897 14.6477 5.76221 14.7714 5.9341 14.9426C6.10599 15.1138 6.23069 15.3265 6.29608 15.5601L6.74252 17.1708C6.80569 17.3995 6.91222 17.6141 7.05633 17.8027L8.40903 19.5764C8.54933 19.7607 8.64266 19.9764 8.68097 20.2048L9.04862 22.4106C9.0699 22.5529 9.1416 22.6827 9.25065 22.7764C9.35969 22.8701 9.4988 22.9215 9.64259 22.9212C9.72204 22.9212 9.80068 22.9054 9.87394 22.8746C10.0264 22.8109 10.1585 22.7068 10.2561 22.5735C10.3537 22.4403 10.4131 22.2829 10.4279 22.1183C10.4668 21.7253 10.6246 21.3534 10.8803 21.0522L11.2723 20.5809C11.3659 20.4685 11.4362 20.3386 11.4792 20.1987L11.8819 18.8923C11.9827 18.563 12.184 18.2735 12.4575 18.0643L13.6555 17.1444C13.8012 17.0352 13.8994 16.8742 13.9297 16.6947C13.9458 16.5952 13.94 16.4935 13.9129 16.3965C13.8859 16.2995 13.8381 16.2095 13.7728 16.1327L12.9751 15.1944C12.9328 15.1446 12.892 15.0924 12.8538 15.0391L12.2441 14.1893C11.8337 13.6172 11.1997 13.2857 10.5481 13.3029C10.5445 13.303 10.5409 13.3021 10.5379 13.3002L9.29168 12.5525C9.06983 12.4202 8.8176 12.3475 8.5594 12.3412C8.30119 12.3349 8.04574 12.3954 7.81773 12.5167L7.16122 12.8685C6.93759 12.9872 6.67743 13.0174 6.43254 12.953C6.18764 12.8886 5.976 12.7343 5.83975 12.5209L5.20198 11.5138C5.08738 11.3329 5.02809 11.1225 5.0314 10.9084C5.03472 10.6943 5.10048 10.4858 5.22062 10.3085C5.35294 10.1117 5.5375 9.95573 5.75358 9.85806C5.96965 9.76038 6.20867 9.72488 6.44381 9.75554L7.40051 9.87702C7.62334 9.90753 7.85022 9.87164 8.05276 9.77385C8.25529 9.67605 8.42449 9.5207 8.53917 9.32722C8.66007 9.11884 8.8398 8.95079 9.05583 8.84416C9.27186 8.73752 9.51456 8.69704 9.75351 8.72779L10.1717 8.78129C10.3681 8.80581 10.5675 8.77878 10.7502 8.70286C10.9329 8.62695 11.0928 8.50477 11.214 8.34834L11.5825 7.87025C11.7824 7.61236 11.8946 7.29735 11.9029 6.97118C11.9111 6.64501 11.8149 6.32475 11.6283 6.05711L10.8336 4.9108C10.5042 4.43739 10.0761 4.04103 9.57872 3.74904C9.46693 3.68355 9.35898 3.61172 9.25539 3.53391L8.10516 2.66881C10.0243 1.76333 12.1573 1.40881 14.2662 1.64478C16.3751 1.88076 18.377 2.69795 20.0485 4.0052L19.75 4.42171C19.026 5.21186 18.3879 6.07669 17.8466 7.00166L17.4129 7.74317C17.3249 7.8987 17.2876 8.07775 17.3061 8.25547C17.3246 8.43318 17.3979 8.60072 17.516 8.73482C17.7273 8.97657 18.0204 9.13187 18.3391 9.17098L18.5474 9.19661C18.8904 9.23899 19.2137 9.37997 19.4781 9.60245C19.7425 9.82493 19.9367 10.1193 20.0371 10.45C20.1333 10.7694 20.136 11.1096 20.0449 11.4305C19.9539 11.7513 19.7728 12.0394 19.5232 12.2606L17.4701 14.0833C17.3405 14.1997 17.2373 14.3423 17.1672 14.5018C17.0971 14.6613 17.0618 14.8338 17.0637 15.008V15.4918C17.0614 15.6547 17.1003 15.8156 17.1768 15.9595C17.2534 16.1034 17.3651 16.2255 17.5016 16.3146C17.714 16.4515 17.8924 16.6349 18.0235 16.8508C18.1546 17.0668 18.235 17.3097 18.2585 17.5612L18.3042 18.0326C18.3244 18.2406 18.4221 18.4335 18.5779 18.5729C18.7337 18.7122 18.9363 18.7879 19.1453 18.7849H20.3532C20.7096 18.7872 21.0588 18.6853 21.3581 18.4919C21.6574 18.2985 21.8937 18.0219 22.038 17.696L22.1106 17.5365C22.2366 17.247 22.4417 16.9989 22.7023 16.8206C22.9629 16.6424 23.2685 16.5411 23.584 16.5285L23.8682 16.5171L23.877 16.5165C23.3207 18.2384 22.3618 19.8028 21.0797 21.0797ZM24.0494 15.9264L23.9083 15.9407C23.886 15.943 23.8637 15.9446 23.8419 15.9455L23.558 15.9584C23.1353 15.976 22.7261 16.1122 22.3772 16.3515C22.0283 16.5909 21.7539 16.9236 21.5853 17.3116L21.5127 17.4655C21.4132 17.6893 21.2504 17.8792 21.0444 18.0116C20.8384 18.1441 20.5981 18.2135 20.3532 18.2112H19.1453C19.0784 18.2139 19.013 18.191 18.9623 18.1473C18.9117 18.1036 18.8795 18.0422 18.8724 17.9756L18.8242 17.4985C18.7932 17.1618 18.6861 16.8366 18.5108 16.5475C18.3356 16.2584 18.0968 16.0129 17.8127 15.8297C17.757 15.7931 17.7117 15.7428 17.681 15.6837C17.6503 15.6245 17.6353 15.5585 17.6374 15.4919V15.008C17.6355 14.9151 17.6535 14.8229 17.6902 14.7375C17.7269 14.6522 17.7814 14.5757 17.8501 14.5131L19.9084 12.6906C20.2399 12.3963 20.4802 12.0132 20.6008 11.5866C20.7214 11.1601 20.7172 10.7079 20.5889 10.2836C20.4559 9.84656 20.1991 9.45748 19.8495 9.16348C19.4999 8.86949 19.0725 8.6832 18.6192 8.6272L18.4102 8.60158C18.2314 8.57967 18.067 8.4926 17.9484 8.35704C17.9095 8.31293 17.885 8.25801 17.8782 8.19961C17.8714 8.14121 17.8825 8.08211 17.9101 8.03022L18.3422 7.29133C18.8658 6.39664 19.4835 5.56044 20.1847 4.79696C20.1926 4.78842 20.1999 4.7794 20.2066 4.76995L20.4918 4.37209C20.6928 4.54735 20.8888 4.73011 21.0797 4.92036C22.144 5.97894 22.9878 7.2381 23.5623 8.62498C24.1367 10.0119 24.4304 11.4989 24.4263 13C24.4269 13.9876 24.3002 14.9712 24.0493 15.9264L24.0494 15.9264Z"/>
</mask>
<path d="M13 1.00004C10.6266 1.00004 8.30655 1.70383 6.33316 3.0224C4.35977 4.34098 2.8217 6.21512 1.91345 8.40783C1.0052 10.6005 0.767559 13.0133 1.23058 15.3411C1.69361 17.6689 2.8365 19.8071 4.51473 21.4853C6.76516 23.7357 9.81741 25 13 25C16.1826 25 19.2348 23.7357 21.4853 21.4853C23.7357 19.2349 25 16.1826 25 13C25 9.81743 23.7357 6.76518 21.4853 4.51475C20.3736 3.39695 19.0512 2.51076 17.5947 1.90746C16.1382 1.30416 14.5765 0.995737 13 1.00004ZM4.92034 4.92036C5.69438 4.14508 6.57549 3.48467 7.53681 2.95924L8.91088 3.99253C9.03202 4.08345 9.15825 4.16738 9.28895 4.24391C9.71432 4.49365 10.0805 4.83268 10.3621 5.23762L11.1568 6.38359C11.2737 6.55129 11.334 6.75195 11.3288 6.95631C11.3237 7.16067 11.2533 7.35804 11.1281 7.51962L10.7595 7.99771C10.6996 8.07508 10.6206 8.13551 10.5302 8.17305C10.4398 8.21059 10.3412 8.22394 10.2441 8.21179L9.82589 8.1583C9.47511 8.11316 9.11882 8.17261 8.80169 8.32917C8.48456 8.48573 8.22072 8.73244 8.04325 9.03836C7.98517 9.13436 7.90008 9.2111 7.79862 9.25898C7.69715 9.30687 7.58382 9.32377 7.4728 9.30757L6.51624 9.18609C6.17588 9.14172 5.82989 9.1931 5.51712 9.33448C5.20435 9.47585 4.93717 9.70161 4.7456 9.98641C4.56282 10.2562 4.46278 10.5734 4.45776 10.8992C4.45274 11.225 4.54296 11.5452 4.71734 11.8205L5.35511 12.8275C5.56926 13.163 5.90191 13.4055 6.28682 13.5068C6.67174 13.608 7.08066 13.5606 7.43216 13.3738L8.08871 13.0221C8.22915 12.9473 8.38649 12.9101 8.54553 12.914C8.70456 12.9178 8.85991 12.9627 8.99655 13.0441L10.2427 13.7918C10.3392 13.8499 10.4504 13.8791 10.563 13.8761C11.0246 13.8633 11.4785 14.106 11.7779 14.5234L12.3875 15.3732C12.4349 15.4392 12.4855 15.5039 12.538 15.5657L13.3356 16.504C13.3473 16.5175 13.3559 16.5335 13.3606 16.5508C13.3654 16.5681 13.3662 16.5862 13.3631 16.6038C13.3553 16.6384 13.335 16.6687 13.306 16.689L12.108 17.609C11.74 17.8905 11.4692 18.28 11.3335 18.7229L10.9308 20.0293C10.9101 20.0968 10.8762 20.1595 10.831 20.2137L10.439 20.685C10.1089 21.0755 9.90569 21.5572 9.85639 22.0661C9.85094 22.1269 9.829 22.185 9.79294 22.2342C9.75688 22.2834 9.70807 22.3219 9.65177 22.3454C9.64715 22.3474 9.64204 22.348 9.63707 22.3472C9.6321 22.3463 9.62748 22.3441 9.6238 22.3406C9.61854 22.3334 9.61525 22.3249 9.61424 22.3161L9.24702 20.1104C9.19327 19.7897 9.06226 19.487 8.86532 19.2283L7.51267 17.4546C7.41293 17.3241 7.33921 17.1757 7.29552 17.0174L6.84908 15.4067C6.75688 15.0775 6.5811 14.7776 6.3388 14.5364C6.0965 14.2951 5.79592 14.1206 5.46626 14.0298L5.36902 14.0032C5.2172 13.9617 5.07785 13.8837 4.96313 13.776L4.13025 12.9921C4.01843 12.8869 3.92233 12.7662 3.84493 12.6336C3.6277 12.2602 3.30276 11.9612 2.9127 11.7757C2.52263 11.5902 2.08562 11.5268 1.65892 11.5939C1.96605 9.06632 3.11484 6.71565 4.92034 4.92036ZM21.0797 21.0797C19.4817 22.6777 17.4457 23.766 15.2292 24.2069C13.0127 24.6478 10.7152 24.4215 8.62734 23.5567C6.53944 22.6918 4.75489 21.2273 3.49936 19.3482C2.24382 17.4691 1.5737 15.26 1.57373 13C1.57373 12.7278 1.58329 12.4572 1.60241 12.1882L1.69363 12.1702C2.01362 12.1081 2.345 12.1472 2.64174 12.2821C2.93849 12.417 3.18587 12.6409 3.34953 12.9228C3.45467 13.1029 3.58519 13.267 3.73707 13.4099L4.5698 14.1937C4.75297 14.3657 4.97546 14.4904 5.21785 14.5567L5.31509 14.5833C5.54897 14.6477 5.76221 14.7714 5.9341 14.9426C6.10599 15.1138 6.23069 15.3265 6.29608 15.5601L6.74252 17.1708C6.80569 17.3995 6.91222 17.6141 7.05633 17.8027L8.40903 19.5764C8.54933 19.7607 8.64266 19.9764 8.68097 20.2048L9.04862 22.4106C9.0699 22.5529 9.1416 22.6827 9.25065 22.7764C9.35969 22.8701 9.4988 22.9215 9.64259 22.9212C9.72204 22.9212 9.80068 22.9054 9.87394 22.8746C10.0264 22.8109 10.1585 22.7068 10.2561 22.5735C10.3537 22.4403 10.4131 22.2829 10.4279 22.1183C10.4668 21.7253 10.6246 21.3534 10.8803 21.0522L11.2723 20.5809C11.3659 20.4685 11.4362 20.3386 11.4792 20.1987L11.8819 18.8923C11.9827 18.563 12.184 18.2735 12.4575 18.0643L13.6555 17.1444C13.8012 17.0352 13.8994 16.8742 13.9297 16.6947C13.9458 16.5952 13.94 16.4935 13.9129 16.3965C13.8859 16.2995 13.8381 16.2095 13.7728 16.1327L12.9751 15.1944C12.9328 15.1446 12.892 15.0924 12.8538 15.0391L12.2441 14.1893C11.8337 13.6172 11.1997 13.2857 10.5481 13.3029C10.5445 13.303 10.5409 13.3021 10.5379 13.3002L9.29168 12.5525C9.06983 12.4202 8.8176 12.3475 8.5594 12.3412C8.30119 12.3349 8.04574 12.3954 7.81773 12.5167L7.16122 12.8685C6.93759 12.9872 6.67743 13.0174 6.43254 12.953C6.18764 12.8886 5.976 12.7343 5.83975 12.5209L5.20198 11.5138C5.08738 11.3329 5.02809 11.1225 5.0314 10.9084C5.03472 10.6943 5.10048 10.4858 5.22062 10.3085C5.35294 10.1117 5.5375 9.95573 5.75358 9.85806C5.96965 9.76038 6.20867 9.72488 6.44381 9.75554L7.40051 9.87702C7.62334 9.90753 7.85022 9.87164 8.05276 9.77385C8.25529 9.67605 8.42449 9.5207 8.53917 9.32722C8.66007 9.11884 8.8398 8.95079 9.05583 8.84416C9.27186 8.73752 9.51456 8.69704 9.75351 8.72779L10.1717 8.78129C10.3681 8.80581 10.5675 8.77878 10.7502 8.70286C10.9329 8.62695 11.0928 8.50477 11.214 8.34834L11.5825 7.87025C11.7824 7.61236 11.8946 7.29735 11.9029 6.97118C11.9111 6.64501 11.8149 6.32475 11.6283 6.05711L10.8336 4.9108C10.5042 4.43739 10.0761 4.04103 9.57872 3.74904C9.46693 3.68355 9.35898 3.61172 9.25539 3.53391L8.10516 2.66881C10.0243 1.76333 12.1573 1.40881 14.2662 1.64478C16.3751 1.88076 18.377 2.69795 20.0485 4.0052L19.75 4.42171C19.026 5.21186 18.3879 6.07669 17.8466 7.00166L17.4129 7.74317C17.3249 7.8987 17.2876 8.07775 17.3061 8.25547C17.3246 8.43318 17.3979 8.60072 17.516 8.73482C17.7273 8.97657 18.0204 9.13187 18.3391 9.17098L18.5474 9.19661C18.8904 9.23899 19.2137 9.37997 19.4781 9.60245C19.7425 9.82493 19.9367 10.1193 20.0371 10.45C20.1333 10.7694 20.136 11.1096 20.0449 11.4305C19.9539 11.7513 19.7728 12.0394 19.5232 12.2606L17.4701 14.0833C17.3405 14.1997 17.2373 14.3423 17.1672 14.5018C17.0971 14.6613 17.0618 14.8338 17.0637 15.008V15.4918C17.0614 15.6547 17.1003 15.8156 17.1768 15.9595C17.2534 16.1034 17.3651 16.2255 17.5016 16.3146C17.714 16.4515 17.8924 16.6349 18.0235 16.8508C18.1546 17.0668 18.235 17.3097 18.2585 17.5612L18.3042 18.0326C18.3244 18.2406 18.4221 18.4335 18.5779 18.5729C18.7337 18.7122 18.9363 18.7879 19.1453 18.7849H20.3532C20.7096 18.7872 21.0588 18.6853 21.3581 18.4919C21.6574 18.2985 21.8937 18.0219 22.038 17.696L22.1106 17.5365C22.2366 17.247 22.4417 16.9989 22.7023 16.8206C22.9629 16.6424 23.2685 16.5411 23.584 16.5285L23.8682 16.5171L23.877 16.5165C23.3207 18.2384 22.3618 19.8028 21.0797 21.0797ZM24.0494 15.9264L23.9083 15.9407C23.886 15.943 23.8637 15.9446 23.8419 15.9455L23.558 15.9584C23.1353 15.976 22.7261 16.1122 22.3772 16.3515C22.0283 16.5909 21.7539 16.9236 21.5853 17.3116L21.5127 17.4655C21.4132 17.6893 21.2504 17.8792 21.0444 18.0116C20.8384 18.1441 20.5981 18.2135 20.3532 18.2112H19.1453C19.0784 18.2139 19.013 18.191 18.9623 18.1473C18.9117 18.1036 18.8795 18.0422 18.8724 17.9756L18.8242 17.4985C18.7932 17.1618 18.6861 16.8366 18.5108 16.5475C18.3356 16.2584 18.0968 16.0129 17.8127 15.8297C17.757 15.7931 17.7117 15.7428 17.681 15.6837C17.6503 15.6245 17.6353 15.5585 17.6374 15.4919V15.008C17.6355 14.9151 17.6535 14.8229 17.6902 14.7375C17.7269 14.6522 17.7814 14.5757 17.8501 14.5131L19.9084 12.6906C20.2399 12.3963 20.4802 12.0132 20.6008 11.5866C20.7214 11.1601 20.7172 10.7079 20.5889 10.2836C20.4559 9.84656 20.1991 9.45748 19.8495 9.16348C19.4999 8.86949 19.0725 8.6832 18.6192 8.6272L18.4102 8.60158C18.2314 8.57967 18.067 8.4926 17.9484 8.35704C17.9095 8.31293 17.885 8.25801 17.8782 8.19961C17.8714 8.14121 17.8825 8.08211 17.9101 8.03022L18.3422 7.29133C18.8658 6.39664 19.4835 5.56044 20.1847 4.79696C20.1926 4.78842 20.1999 4.7794 20.2066 4.76995L20.4918 4.37209C20.6928 4.54735 20.8888 4.73011 21.0797 4.92036C22.144 5.97894 22.9878 7.2381 23.5623 8.62498C24.1367 10.0119 24.4304 11.4989 24.4263 13C24.4269 13.9876 24.3002 14.9712 24.0493 15.9264L24.0494 15.9264Z" fill="white"/>
<path d="M13 1.00004C10.6266 1.00004 8.30655 1.70383 6.33316 3.0224C4.35977 4.34098 2.8217 6.21512 1.91345 8.40783C1.0052 10.6005 0.767559 13.0133 1.23058 15.3411C1.69361 17.6689 2.8365 19.8071 4.51473 21.4853C6.76516 23.7357 9.81741 25 13 25C16.1826 25 19.2348 23.7357 21.4853 21.4853C23.7357 19.2349 25 16.1826 25 13C25 9.81743 23.7357 6.76518 21.4853 4.51475C20.3736 3.39695 19.0512 2.51076 17.5947 1.90746C16.1382 1.30416 14.5765 0.995737 13 1.00004ZM4.92034 4.92036C5.69438 4.14508 6.57549 3.48467 7.53681 2.95924L8.91088 3.99253C9.03202 4.08345 9.15825 4.16738 9.28895 4.24391C9.71432 4.49365 10.0805 4.83268 10.3621 5.23762L11.1568 6.38359C11.2737 6.55129 11.334 6.75195 11.3288 6.95631C11.3237 7.16067 11.2533 7.35804 11.1281 7.51962L10.7595 7.99771C10.6996 8.07508 10.6206 8.13551 10.5302 8.17305C10.4398 8.21059 10.3412 8.22394 10.2441 8.21179L9.82589 8.1583C9.47511 8.11316 9.11882 8.17261 8.80169 8.32917C8.48456 8.48573 8.22072 8.73244 8.04325 9.03836C7.98517 9.13436 7.90008 9.2111 7.79862 9.25898C7.69715 9.30687 7.58382 9.32377 7.4728 9.30757L6.51624 9.18609C6.17588 9.14172 5.82989 9.1931 5.51712 9.33448C5.20435 9.47585 4.93717 9.70161 4.7456 9.98641C4.56282 10.2562 4.46278 10.5734 4.45776 10.8992C4.45274 11.225 4.54296 11.5452 4.71734 11.8205L5.35511 12.8275C5.56926 13.163 5.90191 13.4055 6.28682 13.5068C6.67174 13.608 7.08066 13.5606 7.43216 13.3738L8.08871 13.0221C8.22915 12.9473 8.38649 12.9101 8.54553 12.914C8.70456 12.9178 8.85991 12.9627 8.99655 13.0441L10.2427 13.7918C10.3392 13.8499 10.4504 13.8791 10.563 13.8761C11.0246 13.8633 11.4785 14.106 11.7779 14.5234L12.3875 15.3732C12.4349 15.4392 12.4855 15.5039 12.538 15.5657L13.3356 16.504C13.3473 16.5175 13.3559 16.5335 13.3606 16.5508C13.3654 16.5681 13.3662 16.5862 13.3631 16.6038C13.3553 16.6384 13.335 16.6687 13.306 16.689L12.108 17.609C11.74 17.8905 11.4692 18.28 11.3335 18.7229L10.9308 20.0293C10.9101 20.0968 10.8762 20.1595 10.831 20.2137L10.439 20.685C10.1089 21.0755 9.90569 21.5572 9.85639 22.0661C9.85094 22.1269 9.829 22.185 9.79294 22.2342C9.75688 22.2834 9.70807 22.3219 9.65177 22.3454C9.64715 22.3474 9.64204 22.348 9.63707 22.3472C9.6321 22.3463 9.62748 22.3441 9.6238 22.3406C9.61854 22.3334 9.61525 22.3249 9.61424 22.3161L9.24702 20.1104C9.19327 19.7897 9.06226 19.487 8.86532 19.2283L7.51267 17.4546C7.41293 17.3241 7.33921 17.1757 7.29552 17.0174L6.84908 15.4067C6.75688 15.0775 6.5811 14.7776 6.3388 14.5364C6.0965 14.2951 5.79592 14.1206 5.46626 14.0298L5.36902 14.0032C5.2172 13.9617 5.07785 13.8837 4.96313 13.776L4.13025 12.9921C4.01843 12.8869 3.92233 12.7662 3.84493 12.6336C3.6277 12.2602 3.30276 11.9612 2.9127 11.7757C2.52263 11.5902 2.08562 11.5268 1.65892 11.5939C1.96605 9.06632 3.11484 6.71565 4.92034 4.92036ZM21.0797 21.0797C19.4817 22.6777 17.4457 23.766 15.2292 24.2069C13.0127 24.6478 10.7152 24.4215 8.62734 23.5567C6.53944 22.6918 4.75489 21.2273 3.49936 19.3482C2.24382 17.4691 1.5737 15.26 1.57373 13C1.57373 12.7278 1.58329 12.4572 1.60241 12.1882L1.69363 12.1702C2.01362 12.1081 2.345 12.1472 2.64174 12.2821C2.93849 12.417 3.18587 12.6409 3.34953 12.9228C3.45467 13.1029 3.58519 13.267 3.73707 13.4099L4.5698 14.1937C4.75297 14.3657 4.97546 14.4904 5.21785 14.5567L5.31509 14.5833C5.54897 14.6477 5.76221 14.7714 5.9341 14.9426C6.10599 15.1138 6.23069 15.3265 6.29608 15.5601L6.74252 17.1708C6.80569 17.3995 6.91222 17.6141 7.05633 17.8027L8.40903 19.5764C8.54933 19.7607 8.64266 19.9764 8.68097 20.2048L9.04862 22.4106C9.0699 22.5529 9.1416 22.6827 9.25065 22.7764C9.35969 22.8701 9.4988 22.9215 9.64259 22.9212C9.72204 22.9212 9.80068 22.9054 9.87394 22.8746C10.0264 22.8109 10.1585 22.7068 10.2561 22.5735C10.3537 22.4403 10.4131 22.2829 10.4279 22.1183C10.4668 21.7253 10.6246 21.3534 10.8803 21.0522L11.2723 20.5809C11.3659 20.4685 11.4362 20.3386 11.4792 20.1987L11.8819 18.8923C11.9827 18.563 12.184 18.2735 12.4575 18.0643L13.6555 17.1444C13.8012 17.0352 13.8994 16.8742 13.9297 16.6947C13.9458 16.5952 13.94 16.4935 13.9129 16.3965C13.8859 16.2995 13.8381 16.2095 13.7728 16.1327L12.9751 15.1944C12.9328 15.1446 12.892 15.0924 12.8538 15.0391L12.2441 14.1893C11.8337 13.6172 11.1997 13.2857 10.5481 13.3029C10.5445 13.303 10.5409 13.3021 10.5379 13.3002L9.29168 12.5525C9.06983 12.4202 8.8176 12.3475 8.5594 12.3412C8.30119 12.3349 8.04574 12.3954 7.81773 12.5167L7.16122 12.8685C6.93759 12.9872 6.67743 13.0174 6.43254 12.953C6.18764 12.8886 5.976 12.7343 5.83975 12.5209L5.20198 11.5138C5.08738 11.3329 5.02809 11.1225 5.0314 10.9084C5.03472 10.6943 5.10048 10.4858 5.22062 10.3085C5.35294 10.1117 5.5375 9.95573 5.75358 9.85806C5.96965 9.76038 6.20867 9.72488 6.44381 9.75554L7.40051 9.87702C7.62334 9.90753 7.85022 9.87164 8.05276 9.77385C8.25529 9.67605 8.42449 9.5207 8.53917 9.32722C8.66007 9.11884 8.8398 8.95079 9.05583 8.84416C9.27186 8.73752 9.51456 8.69704 9.75351 8.72779L10.1717 8.78129C10.3681 8.80581 10.5675 8.77878 10.7502 8.70286C10.9329 8.62695 11.0928 8.50477 11.214 8.34834L11.5825 7.87025C11.7824 7.61236 11.8946 7.29735 11.9029 6.97118C11.9111 6.64501 11.8149 6.32475 11.6283 6.05711L10.8336 4.9108C10.5042 4.43739 10.0761 4.04103 9.57872 3.74904C9.46693 3.68355 9.35898 3.61172 9.25539 3.53391L8.10516 2.66881C10.0243 1.76333 12.1573 1.40881 14.2662 1.64478C16.3751 1.88076 18.377 2.69795 20.0485 4.0052L19.75 4.42171C19.026 5.21186 18.3879 6.07669 17.8466 7.00166L17.4129 7.74317C17.3249 7.8987 17.2876 8.07775 17.3061 8.25547C17.3246 8.43318 17.3979 8.60072 17.516 8.73482C17.7273 8.97657 18.0204 9.13187 18.3391 9.17098L18.5474 9.19661C18.8904 9.23899 19.2137 9.37997 19.4781 9.60245C19.7425 9.82493 19.9367 10.1193 20.0371 10.45C20.1333 10.7694 20.136 11.1096 20.0449 11.4305C19.9539 11.7513 19.7728 12.0394 19.5232 12.2606L17.4701 14.0833C17.3405 14.1997 17.2373 14.3423 17.1672 14.5018C17.0971 14.6613 17.0618 14.8338 17.0637 15.008V15.4918C17.0614 15.6547 17.1003 15.8156 17.1768 15.9595C17.2534 16.1034 17.3651 16.2255 17.5016 16.3146C17.714 16.4515 17.8924 16.6349 18.0235 16.8508C18.1546 17.0668 18.235 17.3097 18.2585 17.5612L18.3042 18.0326C18.3244 18.2406 18.4221 18.4335 18.5779 18.5729C18.7337 18.7122 18.9363 18.7879 19.1453 18.7849H20.3532C20.7096 18.7872 21.0588 18.6853 21.3581 18.4919C21.6574 18.2985 21.8937 18.0219 22.038 17.696L22.1106 17.5365C22.2366 17.247 22.4417 16.9989 22.7023 16.8206C22.9629 16.6424 23.2685 16.5411 23.584 16.5285L23.8682 16.5171L23.877 16.5165C23.3207 18.2384 22.3618 19.8028 21.0797 21.0797ZM24.0494 15.9264L23.9083 15.9407C23.886 15.943 23.8637 15.9446 23.8419 15.9455L23.558 15.9584C23.1353 15.976 22.7261 16.1122 22.3772 16.3515C22.0283 16.5909 21.7539 16.9236 21.5853 17.3116L21.5127 17.4655C21.4132 17.6893 21.2504 17.8792 21.0444 18.0116C20.8384 18.1441 20.5981 18.2135 20.3532 18.2112H19.1453C19.0784 18.2139 19.013 18.191 18.9623 18.1473C18.9117 18.1036 18.8795 18.0422 18.8724 17.9756L18.8242 17.4985C18.7932 17.1618 18.6861 16.8366 18.5108 16.5475C18.3356 16.2584 18.0968 16.0129 17.8127 15.8297C17.757 15.7931 17.7117 15.7428 17.681 15.6837C17.6503 15.6245 17.6353 15.5585 17.6374 15.4919V15.008C17.6355 14.9151 17.6535 14.8229 17.6902 14.7375C17.7269 14.6522 17.7814 14.5757 17.8501 14.5131L19.9084 12.6906C20.2399 12.3963 20.4802 12.0132 20.6008 11.5866C20.7214 11.1601 20.7172 10.7079 20.5889 10.2836C20.4559 9.84656 20.1991 9.45748 19.8495 9.16348C19.4999 8.86949 19.0725 8.6832 18.6192 8.6272L18.4102 8.60158C18.2314 8.57967 18.067 8.4926 17.9484 8.35704C17.9095 8.31293 17.885 8.25801 17.8782 8.19961C17.8714 8.14121 17.8825 8.08211 17.9101 8.03022L18.3422 7.29133C18.8658 6.39664 19.4835 5.56044 20.1847 4.79696C20.1926 4.78842 20.1999 4.7794 20.2066 4.76995L20.4918 4.37209C20.6928 4.54735 20.8888 4.73011 21.0797 4.92036C22.144 5.97894 22.9878 7.2381 23.5623 8.62498C24.1367 10.0119 24.4304 11.4989 24.4263 13C24.4269 13.9876 24.3002 14.9712 24.0493 15.9264L24.0494 15.9264Z" stroke="white" stroke-width="0.4" mask="url(#path-1-outside-1)"/>
</svg>
