<svg width="13" height="20" viewBox="0 0 13 20" fill="none" xmlns="http://www.w3.org/2000/svg">
<path d="M1.67357 14.2476H0.535188C0.245681 14.2476 0.0142706 14.4934 0.0601763 14.7792C0.260455 16.0263 0.86149 17.0444 1.86328 17.8335C3.00391 18.7319 4.47266 19.1812 6.26953 19.1812C8.21484 19.1812 9.75391 18.7319 10.8867 17.8335C12.0273 16.9272 12.5977 15.7007 12.5977 14.1538C12.5977 12.9429 12.2148 11.9741 11.4492 11.2476C10.6836 10.521 9.51782 10.2374 7.76782 9.79993L6.31526 9.43679C6.02421 9.36402 5.73505 9.56216 5.69785 9.85985L5.62228 10.4645C5.59115 10.7136 5.74898 10.9468 5.98836 11.0223C7.2179 11.4105 9.17419 12.2438 9.63281 12.6538C10.1562 13.1147 10.418 13.7007 10.418 14.4116C10.418 15.2397 10.043 15.9272 9.29297 16.4741C8.55078 17.0132 7.60938 17.2827 6.46875 17.2827C5.25781 17.2827 4.25391 17.0054 3.45703 16.4507C2.79891 15.988 2.37992 15.4004 2.20006 14.6878C2.13771 14.4407 1.92835 14.2476 1.67357 14.2476Z" fill="white"/>
<g clip-path="url(#clip0)">
<path d="M6.51263 0.654476V2.38956C6.51263 2.48514 6.42639 2.55769 6.33152 2.54062C6.10815 2.50221 5.87788 2.48088 5.64243 2.48088C5.32937 2.48088 5.02579 2.51672 4.73342 2.58414C4.66615 2.59951 4.59629 2.57134 4.56179 2.5116L3.88305 1.34834C3.83907 1.27238 3.86667 1.17423 3.94515 1.13497C4.67391 0.767986 5.48805 0.54438 6.3505 0.5C6.43846 0.495733 6.51263 0.56657 6.51263 0.654476Z" fill="white"/>
<path d="M4.14868 2.76764C3.57084 2.99893 3.06027 3.35909 2.65407 3.81312C2.60404 3.8686 2.52297 3.88311 2.45829 3.84641L1.68986 3.40773C1.6131 3.36421 1.58809 3.26521 1.63638 3.19181C2.09348 2.49709 2.69374 1.90309 3.39576 1.45075C3.46993 1.40296 3.56998 1.42856 3.61396 1.50367L4.22457 2.54915C4.27114 2.62938 4.23578 2.73265 4.14868 2.76764Z" fill="white"/>
<path d="M8.09949 3.31897C7.75192 3.04928 7.35779 2.83506 6.93088 2.69083C6.86706 2.66949 6.82394 2.61145 6.82394 2.54488V0.654474C6.82394 0.567421 6.89725 0.495731 6.98608 0.499998C7.84766 0.544378 8.6618 0.767984 9.39056 1.13497C9.46904 1.17508 9.49664 1.27238 9.45266 1.34834L8.3289 3.27459C8.28146 3.35567 8.17366 3.37615 8.09949 3.31897Z" fill="#D90429"/>
<path d="M12.0184 3.73542C12.4126 4.50012 12.6437 5.36126 12.6678 6.2736C12.6704 6.3598 12.5988 6.42978 12.5117 6.42978H9.7847C9.70191 6.42978 9.63205 6.36577 9.62946 6.28384C9.61566 5.89808 9.54494 5.52597 9.42679 5.17605C9.40264 5.10607 9.4311 5.02841 9.49578 4.99171L11.8019 3.67397C11.8787 3.62959 11.9779 3.65775 12.0184 3.73542Z" fill="#D90429"/>
<path d="M9.1922 4.62557C9.02144 4.29699 8.80582 3.99572 8.55313 3.72859C8.5057 3.67824 8.49535 3.60484 8.53071 3.5451L9.72174 1.50362C9.76572 1.42767 9.86576 1.40292 9.93993 1.45071C10.642 1.90304 11.2422 2.49705 11.7002 3.19176C11.7485 3.26516 11.7226 3.36416 11.6467 3.40769L9.40781 4.68702C9.33019 4.73055 9.23187 4.70324 9.1922 4.62557Z" fill="#D90429"/>
<path d="M2.28924 4.29021C1.91149 4.86886 1.68208 5.54992 1.65535 6.28304C1.6519 6.36497 1.5829 6.42898 1.50011 6.42898H0.823955C0.736849 6.42898 0.666129 6.35899 0.667854 6.2728C0.692002 5.36045 0.923136 4.50016 1.31727 3.73461C1.35781 3.65695 1.45612 3.62964 1.53288 3.67316L2.23491 4.07429C2.31253 4.11867 2.33754 4.21681 2.28924 4.29021Z" fill="white"/>
<path fill-rule="evenodd" clip-rule="evenodd" d="M3.07494 2.76506L5.92703 6.83862C5.95636 6.883 5.98999 6.92567 6.02708 6.96493C6.36084 7.31656 6.90504 7.34643 7.24139 7.03235C7.57861 6.71828 7.58033 6.1789 7.24657 5.82812C7.20862 5.78801 7.16809 5.75302 7.12497 5.72144H7.12583L3.1862 2.66094C3.10513 2.59864 3.0163 2.68057 3.07494 2.76506ZM6.28062 6.42981C6.28062 6.64145 6.45399 6.81301 6.66786 6.81301C6.88172 6.81301 7.05509 6.64145 7.05509 6.42981C7.05509 6.21817 6.88172 6.04661 6.66786 6.04661C6.45399 6.04661 6.28062 6.21817 6.28062 6.42981Z" fill="white"/>
</g>
<defs>
<clipPath id="clip0">
<rect width="12" height="6.75" fill="white" transform="matrix(-1 0 0 1 12.6678 0.5)"/>
</clipPath>
</defs>
</svg>
