<svg width="84" height="50" viewBox="0 0 64 30" fill="none" xmlns="http://www.w3.org/2000/svg">
<rect y="6" width="64" height="24" rx="4" fill="#2B2D42"/>
<path d="M8.34668 19.0615H9.23047C9.27279 19.4424 9.45833 19.7484 9.78711 19.9795C10.1191 20.2106 10.5374 20.3262 11.042 20.3262C11.5173 20.3262 11.9095 20.2139 12.2188 19.9893C12.5312 19.7614 12.6875 19.4749 12.6875 19.1299C12.6875 18.8337 12.5785 18.5895 12.3604 18.3975C12.1455 18.2054 11.8005 18.0475 11.3252 17.9238L10.4219 17.6895C9.77083 17.5234 9.29557 17.2923 8.99609 16.9961C8.69661 16.6966 8.54688 16.3076 8.54688 15.8291C8.54688 15.2432 8.77799 14.7646 9.24023 14.3936C9.70573 14.0225 10.3047 13.8369 11.0371 13.8369C11.737 13.8369 12.3164 14.0257 12.7754 14.4033C13.2344 14.7777 13.4736 15.2594 13.4932 15.8486H12.6143C12.5752 15.471 12.4124 15.1732 12.126 14.9551C11.8395 14.737 11.4668 14.6279 11.0078 14.6279C10.5521 14.6279 10.1794 14.7354 9.88965 14.9502C9.60319 15.165 9.45996 15.445 9.45996 15.79C9.45996 16.057 9.56413 16.2767 9.77246 16.4492C9.98405 16.6185 10.3291 16.765 10.8076 16.8887L11.5449 17.084C12.2741 17.2663 12.7982 17.5088 13.1172 17.8115C13.4362 18.1143 13.5957 18.5179 13.5957 19.0225C13.5957 19.667 13.3581 20.1781 12.8828 20.5557C12.4108 20.93 11.7695 21.1172 10.959 21.1172C10.2103 21.1172 9.59831 20.93 9.12305 20.5557C8.64779 20.1813 8.389 19.6833 8.34668 19.0615ZM16.5254 16.5713C16.1315 16.5713 15.8044 16.708 15.5439 16.9814C15.2868 17.2516 15.1452 17.5999 15.1191 18.0264H17.8779C17.8682 17.5967 17.7396 17.2467 17.4922 16.9766C17.2448 16.7064 16.9225 16.5713 16.5254 16.5713ZM17.8584 19.5449H18.6934C18.6185 19.9941 18.3841 20.3636 17.9902 20.6533C17.5996 20.943 17.1292 21.0879 16.5791 21.0879C15.8532 21.0879 15.2819 20.8535 14.8652 20.3848C14.4486 19.916 14.2402 19.2812 14.2402 18.4805C14.2402 17.6862 14.4486 17.0465 14.8652 16.5615C15.2852 16.0765 15.8434 15.834 16.54 15.834C17.2236 15.834 17.764 16.0635 18.1611 16.5225C18.5583 16.9814 18.7568 17.5967 18.7568 18.3682V18.6904H15.1143V18.7393C15.1143 19.2275 15.2477 19.6182 15.5146 19.9111C15.7816 20.2041 16.1429 20.3506 16.5986 20.3506C16.9176 20.3506 17.1895 20.2773 17.4141 20.1309C17.6387 19.9844 17.7868 19.7891 17.8584 19.5449ZM19.6602 21V13.9541H20.5098V21H19.6602ZM23.6934 16.5713C23.2995 16.5713 22.9723 16.708 22.7119 16.9814C22.4548 17.2516 22.3132 17.5999 22.2871 18.0264H25.0459C25.0361 17.5967 24.9076 17.2467 24.6602 16.9766C24.4128 16.7064 24.0905 16.5713 23.6934 16.5713ZM25.0264 19.5449H25.8613C25.7865 19.9941 25.5521 20.3636 25.1582 20.6533C24.7676 20.943 24.2972 21.0879 23.7471 21.0879C23.0212 21.0879 22.4499 20.8535 22.0332 20.3848C21.6165 19.916 21.4082 19.2812 21.4082 18.4805C21.4082 17.6862 21.6165 17.0465 22.0332 16.5615C22.4531 16.0765 23.0114 15.834 23.708 15.834C24.3916 15.834 24.932 16.0635 25.3291 16.5225C25.7262 16.9814 25.9248 17.5967 25.9248 18.3682V18.6904H22.2822V18.7393C22.2822 19.2275 22.4157 19.6182 22.6826 19.9111C22.9495 20.2041 23.3109 20.3506 23.7666 20.3506C24.0856 20.3506 24.3574 20.2773 24.582 20.1309C24.8066 19.9844 24.9548 19.7891 25.0264 19.5449ZM31.0029 17.5869H30.1729C30.1077 17.2939 29.9629 17.0531 29.7383 16.8643C29.5169 16.6755 29.2288 16.5811 28.874 16.5811C28.4313 16.5811 28.0749 16.752 27.8047 17.0938C27.5345 17.4323 27.3994 17.888 27.3994 18.4609C27.3994 19.0436 27.5345 19.5026 27.8047 19.8379C28.0781 20.1732 28.4378 20.3408 28.8838 20.3408C29.2256 20.3408 29.5072 20.2562 29.7285 20.0869C29.9531 19.9144 30.1029 19.6735 30.1777 19.3643H31.0127C30.9476 19.8721 30.7181 20.2871 30.3242 20.6094C29.9336 20.9284 29.4518 21.0879 28.8789 21.0879C28.1693 21.0879 27.6012 20.8535 27.1748 20.3848C26.7484 19.9128 26.5352 19.2715 26.5352 18.4609C26.5352 17.6634 26.7484 17.027 27.1748 16.5518C27.6012 16.0732 28.166 15.834 28.8691 15.834C29.4746 15.834 29.9661 16.0049 30.3438 16.3467C30.7246 16.6885 30.9443 17.1019 31.0029 17.5869ZM32.0674 14.6963H32.917V15.9219H33.9033V16.6201H32.917V19.6377C32.917 19.8688 32.9674 20.0397 33.0684 20.1504C33.1693 20.2578 33.3288 20.3115 33.5469 20.3115C33.6836 20.3115 33.8008 20.3034 33.8984 20.2871V21C33.7878 21.026 33.6087 21.0391 33.3613 21.0391C32.8958 21.0391 32.5638 20.9349 32.3652 20.7266C32.1667 20.5182 32.0674 20.1699 32.0674 19.6816V16.6201H31.3105V15.9219H32.0674V14.6963ZM38.5371 20.3652C38.9375 20.3652 39.2728 20.2415 39.543 19.9941C39.8164 19.7435 39.9531 19.4359 39.9531 19.0713V18.6562L38.5957 18.7393C38.2539 18.762 37.9886 18.8451 37.7998 18.9883C37.6143 19.1315 37.5215 19.3236 37.5215 19.5645C37.5215 19.8053 37.6143 19.999 37.7998 20.1455C37.9854 20.292 38.2311 20.3652 38.5371 20.3652ZM38.3467 21.0879C37.8421 21.0879 37.4336 20.9479 37.1211 20.668C36.8118 20.388 36.6572 20.0202 36.6572 19.5645C36.6572 19.1283 36.8167 18.7799 37.1357 18.5195C37.458 18.2591 37.9121 18.1126 38.498 18.0801L39.9531 17.9971V17.5723C39.9531 17.263 39.8555 17.0205 39.6602 16.8447C39.4648 16.6689 39.1914 16.5811 38.8398 16.5811C38.5176 16.5811 38.2555 16.6527 38.0537 16.7959C37.8519 16.9359 37.7233 17.1328 37.668 17.3867H36.8477C36.877 16.9342 37.0723 16.5632 37.4336 16.2734C37.7982 15.9805 38.2734 15.834 38.8594 15.834C39.4551 15.834 39.9271 15.9837 40.2754 16.2832C40.627 16.5827 40.8027 16.9847 40.8027 17.4893V21H39.9971V20.126H39.9775C39.8245 20.4157 39.5999 20.6484 39.3037 20.8242C39.0075 21 38.6885 21.0879 38.3467 21.0879ZM41.8818 21V15.9219H42.6826V16.752H42.7021C42.7868 16.4688 42.9382 16.2458 43.1562 16.083C43.3776 15.917 43.6364 15.834 43.9326 15.834C44.001 15.834 44.1149 15.8454 44.2744 15.8682V16.6934C44.1833 16.6608 44.0319 16.6445 43.8203 16.6445C43.4915 16.6445 43.2279 16.7536 43.0293 16.9717C42.8307 17.1898 42.7314 17.4779 42.7314 17.8359V21H41.8818ZM46.7598 16.5713C46.3659 16.5713 46.0387 16.708 45.7783 16.9814C45.5212 17.2516 45.3796 17.5999 45.3535 18.0264H48.1123C48.1025 17.5967 47.974 17.2467 47.7266 16.9766C47.4792 16.7064 47.1569 16.5713 46.7598 16.5713ZM48.0928 19.5449H48.9277C48.8529 19.9941 48.6185 20.3636 48.2246 20.6533C47.834 20.943 47.3636 21.0879 46.8135 21.0879C46.0876 21.0879 45.5163 20.8535 45.0996 20.3848C44.6829 19.916 44.4746 19.2812 44.4746 18.4805C44.4746 17.6862 44.6829 17.0465 45.0996 16.5615C45.5195 16.0765 46.0778 15.834 46.7744 15.834C47.458 15.834 47.9984 16.0635 48.3955 16.5225C48.7926 16.9814 48.9912 17.5967 48.9912 18.3682V18.6904H45.3486V18.7393C45.3486 19.2275 45.4821 19.6182 45.749 19.9111C46.016 20.2041 46.3773 20.3506 46.833 20.3506C47.152 20.3506 47.4238 20.2773 47.6484 20.1309C47.873 19.9844 48.0212 19.7891 48.0928 19.5449ZM51.5254 20.3652C51.9258 20.3652 52.2611 20.2415 52.5312 19.9941C52.8047 19.7435 52.9414 19.4359 52.9414 19.0713V18.6562L51.584 18.7393C51.2422 18.762 50.9769 18.8451 50.7881 18.9883C50.6025 19.1315 50.5098 19.3236 50.5098 19.5645C50.5098 19.8053 50.6025 19.999 50.7881 20.1455C50.9736 20.292 51.2194 20.3652 51.5254 20.3652ZM51.335 21.0879C50.8304 21.0879 50.4219 20.9479 50.1094 20.668C49.8001 20.388 49.6455 20.0202 49.6455 19.5645C49.6455 19.1283 49.805 18.7799 50.124 18.5195C50.4463 18.2591 50.9004 18.1126 51.4863 18.0801L52.9414 17.9971V17.5723C52.9414 17.263 52.8438 17.0205 52.6484 16.8447C52.4531 16.6689 52.1797 16.5811 51.8281 16.5811C51.5059 16.5811 51.2438 16.6527 51.042 16.7959C50.8402 16.9359 50.7116 17.1328 50.6562 17.3867H49.8359C49.8652 16.9342 50.0605 16.5632 50.4219 16.2734C50.7865 15.9805 51.2617 15.834 51.8477 15.834C52.4434 15.834 52.9154 15.9837 53.2637 16.2832C53.6152 16.5827 53.791 16.9847 53.791 17.4893V21H52.9854V20.126H52.9658C52.8128 20.4157 52.5882 20.6484 52.292 20.8242C51.9958 21 51.6768 21.0879 51.335 21.0879Z" fill="white"/>
<path d="M16 0L22.9282 9H9.0718L16 0Z" fill="#2B2D42"/>
</svg>
