<svg width="24" height="24" viewBox="0 0 24 24" fill="none" xmlns="http://www.w3.org/2000/svg">
<path d="M22.553 22.581C22.6187 22.6723 22.6559 22.7811 22.6598 22.8935C22.6637 23.0059 22.6342 23.117 22.575 23.2127C22.5159 23.3084 22.4296 23.3843 22.3273 23.431C22.2249 23.4777 22.111 23.493 22 23.475H1.99999C1.88895 23.493 1.77505 23.4777 1.67269 23.431C1.57034 23.3843 1.48412 23.3084 1.42494 23.2127C1.36576 23.117 1.33626 23.0059 1.34019 22.8935C1.34412 22.7811 1.38128 22.6723 1.44699 22.581L11.553 2.37001C11.799 1.87801 12.201 1.87801 12.447 2.37001L22.553 22.581Z" stroke="#F3C400" stroke-linecap="round" stroke-linejoin="round"/>
<path d="M12 16.979V9.979" stroke="#F3C400" stroke-linecap="round" stroke-linejoin="round"/>
<path d="M11.991 18.979C11.9583 18.9796 11.9261 18.9868 11.8963 19C11.8664 19.0132 11.8395 19.0322 11.817 19.056C11.7946 19.0797 11.7771 19.1077 11.7656 19.1383C11.7541 19.1688 11.7488 19.2014 11.75 19.234C11.7526 19.2997 11.7804 19.3619 11.8278 19.4075C11.8751 19.4532 11.9382 19.4788 12.004 19.479H12.009C12.0416 19.4784 12.0738 19.4712 12.1037 19.458C12.1336 19.4448 12.1605 19.4258 12.1829 19.402C12.2054 19.3783 12.2229 19.3503 12.2344 19.3198C12.2459 19.2892 12.2512 19.2566 12.25 19.224C12.2474 19.159 12.2201 19.0974 12.1737 19.0518C12.1272 19.0063 12.065 18.9802 12 18.979H11.995" stroke="#F3C400" stroke-linecap="round" stroke-linejoin="round"/>
</svg>
