<svg width="24" height="24" viewBox="0 0 24 24" fill="none" xmlns="http://www.w3.org/2000/svg">
<path d="M23 11.811C23.0074 14.7482 21.8568 17.5699 19.7977 19.6644C17.7386 21.7589 14.9369 22.9574 12 23C10.5657 23.0216 9.14129 22.7582 7.80952 22.225C6.47774 21.6919 5.26507 20.8997 4.24182 19.8943C3.21857 18.8889 2.40512 17.6904 1.84863 16.3682C1.29214 15.046 1.00369 13.6265 1.00001 12.192C0.991808 9.25431 2.14204 6.43182 4.20126 4.33667C6.26047 2.24151 9.06263 1.04262 12 0.999991C13.4346 0.978541 14.8591 1.24214 16.191 1.7755C17.523 2.30886 18.7357 3.10136 19.759 4.10704C20.7822 5.11272 21.5956 6.31156 22.152 7.63402C22.7084 8.95649 22.9966 10.3763 23 11.811Z" stroke="#D90429" stroke-linecap="round" stroke-linejoin="round"/>
<path d="M12 14.0049V7.00488" stroke="#D90429" stroke-linecap="round" stroke-linejoin="round"/>
<path d="M11.991 16.0049C11.9583 16.0054 11.926 16.0124 11.8961 16.0256C11.8662 16.0388 11.8392 16.0578 11.8167 16.0816C11.7943 16.1053 11.7768 16.1334 11.7653 16.164C11.7539 16.1946 11.7487 16.2272 11.75 16.2599C11.7523 16.3255 11.78 16.3877 11.8271 16.4334C11.8743 16.479 11.9373 16.5047 12.003 16.5049V16.5049C12.0356 16.5042 12.0678 16.4971 12.0977 16.4839C12.1276 16.4707 12.1545 16.4516 12.1769 16.4279C12.1994 16.4042 12.2169 16.3762 12.2284 16.3456C12.2399 16.3151 12.2452 16.2825 12.244 16.2499C12.242 16.1857 12.2157 16.1247 12.1704 16.0792C12.1251 16.0337 12.0642 16.0071 12 16.0049H11.995" stroke="#D90429" stroke-linecap="round" stroke-linejoin="round"/>
</svg>
