<svg width="24" height="24" viewBox="0 0 24 24" fill="none" xmlns="http://www.w3.org/2000/svg">
<g clip-path="url(#clip0)">
<path d="M12 23.001C18.0751 23.001 23 18.0761 23 12.001C23 5.92587 18.0751 1.00101 12 1.00101C5.92487 1.00101 1 5.92587 1 12.001C1 18.0761 5.92487 23.001 12 23.001Z" stroke="#007B33" stroke-linecap="round" stroke-linejoin="round"/>
<path d="M14.5 17.005H13C12.7348 17.005 12.4804 16.8996 12.2929 16.7121C12.1054 16.5246 12 16.2702 12 16.005V9.505C12 9.3724 11.9473 9.24522 11.8536 9.15145C11.7598 9.05768 11.6326 9.005 11.5 9.005H10" stroke="#007B33" stroke-linecap="round" stroke-linejoin="round"/>
<path d="M11.745 6.5C11.6955 6.5 11.6472 6.51466 11.6061 6.54213C11.565 6.5696 11.5329 6.60865 11.514 6.65433C11.4951 6.70001 11.4902 6.75028 11.4998 6.79877C11.5094 6.84727 11.5333 6.89181 11.5682 6.92678C11.6032 6.96174 11.6477 6.98555 11.6962 6.9952C11.7447 7.00484 11.795 6.99989 11.8407 6.98097C11.8863 6.96205 11.9254 6.93 11.9529 6.88889C11.9803 6.84778 11.995 6.79945 11.995 6.75C11.995 6.6837 11.9687 6.62011 11.9218 6.57322C11.8749 6.52634 11.8113 6.5 11.745 6.5Z" stroke="#007B33" stroke-linecap="round" stroke-linejoin="round"/>
</g>
<defs>
<clipPath id="clip0">
<rect width="24" height="24" fill="white"/>
</clipPath>
</defs>
</svg>
